<svg width="16" height="16" viewBox="0 0 16 16" fill="none" xmlns="http://www.w3.org/2000/svg">
<g clip-path="url(#clip0)">
<path d="M6.85889 9.76404L7.19851 10.0975C7.6181 9.67027 7.90774 9.38824 7.90869 9.38729L7.57668 9.04601C7.57668 9.04624 7.28347 9.33136 6.85889 9.76404Z" fill="white"/>
<path d="M14.0452 12.5507C14.1059 12.1207 14.1685 11.6761 14.1685 11.1209C14.1685 8.87346 12.7769 8.37414 11.8987 8.28323C12.5025 6.76148 12.5025 5.83281 12.5025 4.93295C12.5025 2.66413 11.3815 0.887005 9.9502 0.887005C9.71172 0.887005 9.51109 0.969352 9.35402 1.1319C8.90254 1.59861 8.93752 2.64461 8.97132 3.65633C8.99059 4.22729 9.00844 4.76707 8.93705 5.1243C8.79853 5.81687 8.43202 6.39449 8.15546 6.75172C7.90985 5.25353 6.96786 4.69495 6.07656 4.69495C5.25024 4.69495 4.19806 5.49605 3.93935 6.79027C3.81321 7.42049 3.46288 7.8377 3.18109 8.17304C2.94691 8.45149 2.74461 8.69211 2.74461 8.97889C2.74461 9.28805 2.98975 9.45489 3.2206 9.45489C4.22066 9.45489 5.07079 8.65117 5.69172 8.06451C5.9133 7.85483 6.21698 7.56781 6.31456 7.55091C6.4695 7.55091 6.54351 7.61184 6.55184 7.95884C6.01564 8.78635 5.08602 9.59269 4.26398 10.306C3.19323 11.2349 2.26862 12.0371 2.26862 12.7868V13.5008C2.26862 13.5301 2.28218 14.2148 3.4586 14.2148C4.32062 14.2148 6.42142 14.0328 8.47581 12.5079C8.4432 12.6022 8.41036 12.6969 8.37751 12.7911C7.98244 13.9271 7.74254 14.6375 7.74254 14.9288C7.74254 15.4526 8.16951 15.6428 8.45653 15.6428H8.47628L8.4958 15.6395C9.75909 15.4288 11.1568 13.5965 11.743 11.6752C11.8449 11.9474 11.8713 12.3465 11.9003 12.783C11.9715 13.855 12.0691 15.3229 13.6458 15.6383L13.6925 15.6428C14.0016 15.6428 14.1685 15.3977 14.1685 15.1668L14.1592 15.1011C13.8419 13.9947 13.9362 13.3254 14.0452 12.5507ZM13.6925 11.1209C13.6925 11.6426 13.6322 12.0705 13.5739 12.4843C13.4783 13.1636 13.3873 13.8107 13.5789 14.737C13.1508 13.8773 13.1765 13.2062 13.2034 12.5543C13.21 12.3925 13.2165 12.2325 13.2165 12.0728C13.2165 10.8645 12.5703 10.3229 12.0243 10.0239C12.0248 9.993 12.0265 9.96158 12.0265 9.93088C12.0265 9.48083 11.9677 9.09265 11.8675 8.75708C13.4457 8.91796 13.6925 10.2853 13.6925 11.1209ZM9.40376 5.21759C9.4861 4.8061 9.4673 4.2399 9.44707 3.64039C9.41946 2.81335 9.38495 1.78449 9.69602 1.46272C9.76194 1.39465 9.84286 1.363 9.9502 1.363C11.095 1.363 12.0265 2.96448 12.0265 4.93295C12.0265 5.79902 12.0246 6.62344 11.5048 7.9805C10.9265 7.11466 9.9978 6.83692 9.40852 6.83692C9.10007 6.83692 8.81662 6.9038 8.56886 6.99781C8.87255 6.59678 9.25263 5.97442 9.40376 5.21759ZM3.54547 8.4791C3.84534 8.1221 4.25613 7.6335 4.40606 6.88357C4.6293 5.76617 5.51989 5.17095 6.07656 5.17095C6.84696 5.17095 7.38816 5.65622 7.61854 6.51039C7.39173 6.13864 7.04688 5.88494 6.55256 5.88494C5.68815 5.88494 5.15837 6.71364 4.64573 7.51545C4.22519 8.17327 3.79084 8.85299 3.2206 8.97485C3.22441 8.86108 3.3803 8.67545 3.54547 8.4791ZM2.74461 13.5008V13.0429C2.98332 13.077 3.2206 13.1564 3.2206 13.2628C3.2206 13.4749 3.16444 13.6227 3.11684 13.711C2.84695 13.6608 2.75294 13.5558 2.74461 13.5008ZM3.62067 13.7364C3.66375 13.6082 3.6966 13.452 3.6966 13.2628C3.6966 13.2257 3.69255 13.1907 3.6866 13.1569C4.44391 12.6419 5.27975 11.955 6.23935 11.0566L5.91401 10.7091C4.9694 11.5935 4.14998 12.2671 3.41148 12.7685C3.24321 12.6578 3.01926 12.5938 2.78911 12.5662C2.9788 12.0517 3.75729 11.376 4.57576 10.6656C5.44254 9.91351 6.42475 9.06124 6.99237 8.15304L7.02855 8.09521V8.02691C7.02855 7.39526 6.78841 7.07492 6.31456 7.07492C6.04562 7.07492 5.77478 7.331 5.36471 7.71846C5.16099 7.911 4.92989 8.12901 4.67952 8.32916C4.80566 8.14852 4.9268 7.95931 5.04675 7.77177C5.51084 7.04612 5.94876 6.36093 6.55256 6.36093C7.47789 6.36093 7.50454 7.8565 7.50454 8.02691V8.5029H7.98054C8.29993 8.5029 8.54102 8.61285 8.71761 8.83943C9.14981 9.39301 9.08722 10.4726 8.93966 11.0633C8.8992 11.2253 8.83542 11.4353 8.7595 11.6697C6.76604 13.433 4.60574 13.7112 3.62067 13.7364ZM8.82709 12.9475C9.05819 12.2835 9.2969 11.5969 9.40161 11.1785C9.54822 10.5923 9.67222 9.28805 9.09317 8.54621C8.82757 8.20659 8.44296 8.02691 7.98054 8.02691C7.98054 7.98359 7.97982 7.9398 7.97839 7.89601C8.01029 7.86864 8.05646 7.83222 8.10858 7.79295C9.46183 7.8346 10.1225 8.5336 10.1225 9.93088C10.1225 11.3486 8.84732 13.6539 8.28232 14.6058C8.39299 14.196 8.62765 13.5208 8.82709 12.9475ZM8.51103 15.1487C8.92943 14.4745 10.5985 11.6749 10.5985 9.93088C10.5985 8.55645 9.98185 7.6849 8.84185 7.40835C9.01582 7.35218 9.20551 7.31292 9.40852 7.31292C10.1494 7.31292 11.5505 7.86007 11.5505 9.93088C11.5505 12.1542 9.79836 14.8222 8.51103 15.1487ZM12.3751 12.7516C12.3295 12.0626 12.2845 11.4069 11.9013 11.0635C11.937 10.8931 11.9651 10.7236 11.9858 10.5554C12.3939 10.8257 12.7405 11.2489 12.7405 12.0728C12.7405 12.2261 12.734 12.3794 12.7276 12.5348C12.6995 13.2159 12.6705 13.9735 13.1455 14.9345C12.4918 14.4942 12.4323 13.6113 12.3751 12.7516Z" fill="white"/>
</g>
<defs>
<clipPath id="clip0">
<rect width="15.2318" height="15.2318" fill="white" transform="translate(0.602661 0.649006)"/>
</clipPath>
</defs>
</svg>
