<svg width="13" height="14" viewBox="0 0 13 14" fill="none" xmlns="http://www.w3.org/2000/svg">
<g clip-path="url(#clip0)">
<path d="M10.214 4.70592L10.2092 4.7083H9.01926C8.48219 4.70699 8.04716 4.27196 8.04586 3.7349V2.43067C8.05014 1.6302 7.40472 0.977823 6.60425 0.973509C5.83287 0.969374 5.19343 1.57011 5.14944 2.34023C5.14905 2.34737 5.14905 2.35451 5.14944 2.36165V3.49214H4.39975C4.13685 3.49214 3.92375 3.70524 3.92375 3.96813V5.02246C1.7111 5.82623 0.568951 8.27153 1.37273 10.4842C2.1765 12.6968 4.6218 13.839 6.83445 13.0352C9.04711 12.2314 10.1893 9.78614 9.38548 7.57348C8.95465 6.38746 8.02048 5.45329 6.83445 5.02246V3.96337C6.83445 3.70048 6.62136 3.48738 6.35846 3.48738H5.62543V2.43067C5.62543 1.89241 6.06177 1.45608 6.60002 1.45608C7.13828 1.45608 7.57462 1.89241 7.57462 2.43067V3.73252C7.57593 4.53245 8.22408 5.18061 9.02402 5.18192H10.214C10.3454 5.18192 10.452 5.07535 10.452 4.94392C10.452 4.81249 10.3454 4.70592 10.214 4.70592ZM9.17396 9.01842C9.17134 11.1097 7.47392 12.8028 5.38267 12.8002C3.29142 12.7976 1.59829 11.1001 1.6009 9.0089C1.60352 6.91953 3.29803 5.22714 5.38743 5.22714C7.47942 5.22978 9.17396 6.92643 9.17396 9.01842ZM6.3656 3.97051V4.87252C5.72143 4.71467 5.04867 4.71467 4.40451 4.87252V3.97051H5.37077H5.39219H5.41361H6.3656Z" fill="white"/>
<path d="M10.2092 3.19464C10.0778 3.19464 9.97125 3.30121 9.97125 3.43264V4.17757C9.97125 4.309 10.0778 4.41557 10.2092 4.41557C10.3407 4.41557 10.4472 4.309 10.4472 4.17757V3.43264C10.4472 3.30121 10.3407 3.19464 10.2092 3.19464Z" fill="white"/>
<path d="M10.2092 5.46513C10.0778 5.46513 9.97125 5.5717 9.97125 5.70313V6.44806C9.97125 6.57949 10.0778 6.68606 10.2092 6.68606C10.3407 6.68606 10.4472 6.57949 10.4472 6.44806V5.70313C10.4472 5.5717 10.3407 5.46513 10.2092 5.46513Z" fill="white"/>
<path d="M10.7561 4.64165C10.7554 4.64165 10.7547 4.64157 10.754 4.64154C10.7533 4.64154 10.7527 4.64165 10.752 4.64165H10.7561Z" fill="white"/>
<path d="M11.4209 3.70158C11.3318 3.62527 11.2004 3.62527 11.1113 3.70158L10.5877 4.23469C10.4944 4.32724 10.4937 4.47795 10.5863 4.57127C10.6308 4.61611 10.6912 4.64131 10.7543 4.64157C10.8167 4.64131 10.8765 4.61664 10.9209 4.57267L11.4468 4.03718C11.5323 3.93734 11.5207 3.78708 11.4209 3.70158Z" fill="white"/>
<path d="M11.4468 5.84354L10.9185 5.31995C10.8389 5.21538 10.6895 5.19515 10.585 5.27479C10.4804 5.35443 10.4602 5.50374 10.5398 5.60831C10.5535 5.62622 10.5696 5.64214 10.5877 5.65553L11.1113 6.17912C11.2111 6.26462 11.3613 6.25299 11.4468 6.15315C11.5232 6.06408 11.5232 5.93264 11.4468 5.84354Z" fill="white"/>
<path d="M11.7205 4.7083H10.9756C10.8442 4.7083 10.7376 4.81486 10.7376 4.9463C10.7376 5.07773 10.8442 5.18429 10.9756 5.18429H11.7205C11.852 5.18429 11.9585 5.07773 11.9585 4.9463C11.9585 4.81486 11.852 4.7083 11.7205 4.7083Z" fill="white"/>
<path d="M4.93998 11.5935C3.73652 11.5922 2.76124 10.617 2.75993 9.4135C2.75993 9.28206 2.65337 9.1755 2.52193 9.1755C2.3905 9.1755 2.28394 9.28206 2.28394 9.4135C2.28524 10.8799 3.47362 12.0682 4.93998 12.0695C5.07141 12.0695 5.17798 11.963 5.17798 11.8315C5.17798 11.7001 5.07141 11.5935 4.93998 11.5935Z" fill="white"/>
</g>
<defs>
<clipPath id="clip0">
<rect width="12.319" height="12.319" fill="white" transform="translate(0.377502 0.973511)"/>
</clipPath>
</defs>
</svg>
