<svg width="16" height="16" viewBox="0 0 16 16" fill="none" xmlns="http://www.w3.org/2000/svg">
<g clip-path="url(#clip0)">
<path d="M9.12148 14.4714C9.08752 14.4715 9.05409 14.4631 9.02416 14.447C8.99423 14.431 8.96874 14.4078 8.94995 14.3795C8.93116 14.3512 8.91966 14.3187 8.91648 14.2849C8.91329 14.2511 8.91852 14.217 8.9317 14.1857L10.1961 11.1853L8.55996 9.86444C8.52504 9.83626 8.5003 9.79743 8.48948 9.75389C8.47867 9.71034 8.48239 9.66445 8.50006 9.6232L9.70502 6.81068L7.68495 5.48613C7.64172 5.45783 7.61072 5.4143 7.59809 5.36419C7.58547 5.31409 7.59216 5.26107 7.61682 5.21566L8.58878 3.42881C8.87147 2.87033 9.30393 2.40148 9.8378 2.0747C10.3717 1.74791 10.9859 1.57605 11.6119 1.57835C12.1486 1.58698 12.6778 1.70634 13.1662 1.92894C13.6547 2.15155 14.0919 2.47261 14.4505 2.87202C14.8456 3.30198 15.1476 3.80895 15.3375 4.36113C15.5274 4.91331 15.6011 5.49877 15.554 6.08078C15.2381 9.89614 9.48951 14.2471 9.24477 14.4305C9.20917 14.4571 9.16592 14.4715 9.12148 14.4714ZM8.9389 9.64194L10.5743 10.9613C10.6091 10.9894 10.6338 11.028 10.6447 11.0713C10.6556 11.1147 10.6521 11.1604 10.6348 11.2015L9.62618 13.5987C11.1434 12.3431 14.9036 8.95445 15.1448 6.04579C15.1902 5.52038 15.125 4.99129 14.9533 4.49264C14.7816 3.99399 14.5074 3.53686 14.1482 3.15072C13.8281 2.79315 13.4377 2.5055 13.0013 2.30578C12.565 2.10606 12.0921 1.99856 11.6123 1.99002C11.0603 1.98786 10.5186 2.13991 10.0483 2.42903C9.57807 2.71815 9.19789 3.13285 8.95063 3.62641L8.06925 5.24674L10.0741 6.5612C10.1145 6.58771 10.1443 6.62761 10.1583 6.67391C10.1723 6.7202 10.1695 6.76993 10.1504 6.81438L8.9389 9.64194Z" fill="white"/>
<path d="M7.60697 14.9515C7.56243 14.9515 7.5191 14.937 7.48347 14.9103C7.23893 14.7271 1.49038 10.3764 1.17442 6.5608C1.12726 5.97871 1.20095 5.39316 1.39084 4.84091C1.58074 4.28865 1.88274 3.78162 2.2779 3.35162C2.63657 2.95229 3.07382 2.6313 3.56228 2.40877C4.05074 2.18623 4.57988 2.06694 5.11657 2.05836C5.6117 2.06388 6.10061 2.16942 6.55393 2.36863C7.00725 2.56784 7.41563 2.85662 7.75455 3.21762C7.78514 3.24909 7.80488 3.2895 7.81088 3.33298C7.81688 3.37645 7.80882 3.4207 7.7879 3.45927L6.55474 5.72655L8.55957 7.04101C8.60001 7.06752 8.62983 7.10742 8.64379 7.15371C8.65775 7.20001 8.65497 7.24974 8.63594 7.29419L7.4248 10.1219L9.06016 11.4424C9.09496 11.4704 9.11968 11.509 9.1306 11.5524C9.14152 11.5957 9.13803 11.6414 9.12068 11.6826L7.79675 14.8257C7.78103 14.863 7.75463 14.8949 7.72087 14.9173C7.68711 14.9397 7.64749 14.9517 7.60697 14.9517V14.9515ZM5.11657 2.47003C4.63669 2.47851 4.16372 2.58598 3.7273 2.78571C3.29087 2.98543 2.90038 3.27311 2.58027 3.63073C2.22111 4.01711 1.94694 4.47448 1.77546 4.97335C1.60397 5.47222 1.53897 6.0015 1.58465 6.52704C1.85285 9.76359 6.47508 13.5911 7.52134 14.4194L8.68101 11.6663L7.04483 10.3438C7.00992 10.3156 6.98517 10.2768 6.97436 10.2333C6.96354 10.1897 6.96726 10.1438 6.98493 10.1026L8.18989 7.29027L6.17065 5.96655C6.12742 5.93825 6.09641 5.89472 6.08379 5.84461C6.07117 5.79451 6.07785 5.74149 6.10252 5.69608L7.35235 3.39814C6.75478 2.81185 5.95367 2.4793 5.11657 2.47003Z" fill="white"/>
</g>
<defs>
<clipPath id="clip0">
<rect width="15.2318" height="15.2318" fill="white" transform="translate(0.748352 0.649006)"/>
</clipPath>
</defs>
</svg>
