<svg width="35" height="34" viewBox="0 0 35 34" fill="none" xmlns="http://www.w3.org/2000/svg">
<path d="M12.0398 26.3898C12.0398 26.5227 11.8871 26.6289 11.6945 26.6289C11.4754 26.6488 11.3227 26.5426 11.3227 26.3898C11.3227 26.257 11.4754 26.1508 11.668 26.1508C11.8672 26.1309 12.0398 26.2371 12.0398 26.3898ZM9.97461 26.091C9.92813 26.2238 10.0609 26.3766 10.2602 26.4164C10.4328 26.4828 10.632 26.4164 10.6719 26.2836C10.7117 26.1508 10.5856 25.998 10.3863 25.9383C10.2137 25.8918 10.0211 25.9582 9.97461 26.091ZM12.9098 25.9781C12.7172 26.0246 12.5844 26.1508 12.6043 26.3035C12.6242 26.4363 12.7969 26.5227 12.9961 26.4762C13.1887 26.4297 13.3215 26.3035 13.3016 26.1707C13.2816 26.0445 13.1023 25.9582 12.9098 25.9781ZM17.2793 0.53125C8.06875 0.53125 1.02305 7.52383 1.02305 16.7344C1.02305 24.0988 5.65821 30.4008 12.2789 32.6188C13.1289 32.7715 13.4277 32.2469 13.4277 31.8152C13.4277 31.4035 13.4078 29.1324 13.4078 27.7379C13.4078 27.7379 8.75938 28.734 7.78321 25.759C7.78321 25.759 7.02618 23.8266 5.93711 23.3285C5.93711 23.3285 4.41641 22.2859 6.04336 22.3059C6.04336 22.3059 7.69688 22.4387 8.60664 24.0191C10.0609 26.5824 12.4981 25.8453 13.4477 25.407C13.6004 24.3445 14.032 23.6074 14.5102 23.1691C10.7981 22.7574 7.05274 22.2195 7.05274 15.8312C7.05274 14.0051 7.55743 13.0887 8.61993 11.9199C8.44727 11.4883 7.88282 9.70859 8.79258 7.41094C10.1805 6.9793 13.3746 9.20391 13.3746 9.20391C14.7027 8.83203 16.1305 8.63945 17.5449 8.63945C18.9594 8.63945 20.3871 8.83203 21.7152 9.20391C21.7152 9.20391 24.9094 6.97266 26.2973 7.41094C27.207 9.71523 26.6426 11.4883 26.4699 11.9199C27.5324 13.0953 28.1832 14.0117 28.1832 15.8312C28.1832 22.2395 24.2719 22.7508 20.5598 23.1691C21.1707 23.6937 21.6887 24.6898 21.6887 26.2504C21.6887 28.4883 21.6688 31.2574 21.6688 31.802C21.6688 32.2336 21.9742 32.7582 22.8176 32.6055C29.4582 30.4008 33.9606 24.0988 33.9606 16.7344C33.9606 7.52383 26.4898 0.53125 17.2793 0.53125ZM7.47774 23.4348C7.39141 23.5012 7.41133 23.6539 7.52422 23.7801C7.63047 23.8863 7.78321 23.9328 7.86953 23.8465C7.95586 23.7801 7.93594 23.6273 7.82305 23.5012C7.7168 23.3949 7.56407 23.3484 7.47774 23.4348ZM6.76055 22.8969C6.71407 22.9832 6.78047 23.0895 6.91328 23.1559C7.01953 23.2223 7.15235 23.2023 7.19883 23.1094C7.24532 23.023 7.17891 22.9168 7.0461 22.8504C6.91328 22.8105 6.80703 22.8305 6.76055 22.8969ZM8.91211 25.2609C8.80586 25.3473 8.84571 25.5465 8.99844 25.6727C9.15118 25.8254 9.34375 25.8453 9.43008 25.7391C9.51641 25.6527 9.47657 25.4535 9.34375 25.3273C9.19766 25.1746 8.99844 25.1547 8.91211 25.2609ZM8.15508 24.2848C8.04883 24.3512 8.04883 24.5238 8.15508 24.6766C8.26133 24.8293 8.44063 24.8957 8.52696 24.8293C8.63321 24.743 8.63321 24.5703 8.52696 24.4176C8.43399 24.2648 8.26133 24.1984 8.15508 24.2848Z" fill="#1559B3"/>
</svg>
