<svg width="40" height="40" viewBox="0 0 40 40" fill="none" xmlns="http://www.w3.org/2000/svg">
<g clip-path="url(#clip0)">
<path d="M20 0.833313C31.05 0.833313 40 9.63331 40 20.4866C40 29.1716 34.27 36.5366 26.325 39.1333C25.325 39.3183 24.9583 38.71 24.9583 38.1883C24.9583 37.7216 24.975 36.485 24.9833 34.8466C30.5467 36.0317 31.72 32.21 31.72 32.21C32.63 29.9416 33.945 29.335 33.945 29.335C35.7567 28.1166 33.805 28.1416 33.805 28.1416C31.7967 28.2783 30.7417 30.1666 30.7417 30.1666C28.9583 33.1716 26.06 32.3033 24.9167 31.8016C24.7367 30.53 24.2217 29.665 23.65 29.1733C28.0917 28.6816 32.76 26.9916 32.76 19.4616C32.76 17.3166 31.985 15.5633 30.7017 14.1883C30.9267 13.6916 31.6017 11.6933 30.5267 8.98665C30.5267 8.98665 28.8517 8.45998 25.0267 11.0016C23.4267 10.565 21.7267 10.3483 20.0267 10.3383C18.3267 10.3483 16.6267 10.565 15.0267 11.0016C11.2267 8.45998 9.55168 8.98665 9.55168 8.98665C8.47668 11.6933 9.15168 13.6916 9.35168 14.1883C8.07668 15.5633 7.30168 17.3166 7.30168 19.4616C7.30168 27.0117 11.9767 28.6733 16.4267 29.1566C15.7267 29.7466 15.0767 30.9516 15.0767 32.7933C15.0767 35.4233 15.1017 37.5367 15.1017 38.175C15.1017 38.69 14.7517 39.305 13.7267 39.1083C5.72501 36.5283 1.52588e-05 29.1583 1.52588e-05 20.4866C1.52588e-05 9.63331 8.95501 0.833313 20 0.833313Z" fill="#323232"/>
</g>
<defs>
<clipPath id="clip0">
<rect width="40" height="40" fill="white" transform="matrix(-1 0 0 1 40 0)"/>
</clipPath>
</defs>
</svg>
