<svg width="16" height="16" viewBox="0 0 16 16" fill="none" xmlns="http://www.w3.org/2000/svg">
<g clip-path="url(#clip0)">
<path d="M8.18541 15.0334C7.96857 15.0334 7.75951 14.9548 7.59658 14.8121C6.98125 14.2741 6.388 13.7685 5.8646 13.3224L5.86192 13.3201C4.32738 12.0124 3.00224 10.8831 2.08024 9.77062C1.04958 8.52695 0.569519 7.34778 0.569519 6.0596C0.569519 4.80802 0.99868 3.65337 1.77786 2.80818C2.56634 1.95299 3.64825 1.48199 4.82464 1.48199C5.70388 1.48199 6.50909 1.75997 7.21785 2.30813C7.57555 2.58482 7.89977 2.92345 8.18541 3.31845C8.47117 2.92345 8.79528 2.58482 9.15309 2.30813C9.86185 1.75997 10.6671 1.48199 11.5463 1.48199C12.7226 1.48199 13.8046 1.95299 14.5931 2.80818C15.3723 3.65337 15.8013 4.80802 15.8013 6.0596C15.8013 7.34778 15.3214 8.52695 14.2907 9.77051C13.3687 10.8831 12.0437 12.0123 10.5094 13.3199C9.98503 13.7666 9.39085 14.273 8.77413 14.8124C8.61132 14.9548 8.40214 15.0334 8.18541 15.0334ZM4.82464 2.37425C3.90043 2.37425 3.0514 2.7431 2.43375 3.41293C1.80692 4.09287 1.46166 5.03277 1.46166 6.0596C1.46166 7.14302 1.86432 8.11197 2.76715 9.20131C3.63977 10.2543 4.93771 11.3604 6.44053 12.6411L6.44332 12.6434C6.9687 13.0912 7.56427 13.5988 8.18413 14.1408C8.80771 13.5977 9.40422 13.0893 9.93064 12.6409C11.4333 11.3601 12.7312 10.2543 13.6038 9.20131C14.5065 8.11197 14.9092 7.14302 14.9092 6.0596C14.9092 5.03277 14.5639 4.09287 13.9371 3.41293C13.3195 2.7431 12.4704 2.37425 11.5463 2.37425C10.8693 2.37425 10.2477 2.58947 9.69881 3.01387C9.20968 3.39224 8.86896 3.87056 8.66919 4.20524C8.56646 4.37735 8.38564 4.48008 8.18541 4.48008C7.98518 4.48008 7.80436 4.37735 7.70163 4.20524C7.50199 3.87056 7.16126 3.39224 6.67202 3.01387C6.12316 2.58947 5.50156 2.37425 4.82464 2.37425Z" fill="white"/>
</g>
<defs>
<clipPath id="clip0">
<rect width="15.2318" height="15.2318" fill="white" transform="translate(0.569519 0.649006)"/>
</clipPath>
</defs>
</svg>
