<svg width="34" height="34" viewBox="0 0 34 34" fill="none" xmlns="http://www.w3.org/2000/svg">
<path d="M17.0066 9.36324C12.7832 9.36324 9.37655 12.7699 9.37655 16.9933C9.37655 21.2168 12.7832 24.6234 17.0066 24.6234C21.2301 24.6234 24.6367 21.2168 24.6367 16.9933C24.6367 12.7699 21.2301 9.36324 17.0066 9.36324ZM17.0066 21.9539C14.2773 21.9539 12.0461 19.7293 12.0461 16.9933C12.0461 14.2574 14.2707 12.0328 17.0066 12.0328C19.7426 12.0328 21.9672 14.2574 21.9672 16.9933C21.9672 19.7293 19.7359 21.9539 17.0066 21.9539V21.9539ZM26.7285 9.05114C26.7285 10.0406 25.9316 10.8308 24.9488 10.8308C23.9594 10.8308 23.1691 10.0339 23.1691 9.05114C23.1691 8.06832 23.966 7.27145 24.9488 7.27145C25.9316 7.27145 26.7285 8.06832 26.7285 9.05114ZM31.782 10.8574C31.6691 8.4734 31.1246 6.36168 29.3781 4.62184C27.6383 2.88199 25.5266 2.33746 23.1426 2.21793C20.6855 2.07848 13.3211 2.07848 10.8641 2.21793C8.48671 2.33082 6.37499 2.87535 4.62851 4.6152C2.88202 6.35504 2.34413 8.46676 2.2246 10.8507C2.08515 13.3078 2.08515 20.6722 2.2246 23.1293C2.33749 25.5132 2.88202 27.625 4.62851 29.3648C6.37499 31.1047 8.48007 31.6492 10.8641 31.7687C13.3211 31.9082 20.6855 31.9082 23.1426 31.7687C25.5266 31.6558 27.6383 31.1113 29.3781 29.3648C31.118 27.625 31.6625 25.5132 31.782 23.1293C31.9215 20.6722 31.9215 13.3144 31.782 10.8574V10.8574ZM28.6078 25.7656C28.0898 27.0672 27.0871 28.0699 25.7789 28.5945C23.8199 29.3714 19.1715 29.1922 17.0066 29.1922C14.8418 29.1922 10.1867 29.3648 8.23437 28.5945C6.9328 28.0765 5.93007 27.0738 5.40546 25.7656C4.62851 23.8066 4.8078 19.1582 4.8078 16.9933C4.8078 14.8285 4.63515 10.1734 5.40546 8.22106C5.92343 6.91949 6.92616 5.91676 8.23437 5.39215C10.1934 4.6152 14.8418 4.79449 17.0066 4.79449C19.1715 4.79449 23.8266 4.62184 25.7789 5.39215C27.0805 5.91012 28.0832 6.91285 28.6078 8.22106C29.3848 10.18 29.2055 14.8285 29.2055 16.9933C29.2055 19.1582 29.3848 23.8132 28.6078 25.7656Z" fill="#1559B3"/>
</svg>
