<svg width="319" height="59" viewBox="0 0 319 59" fill="none" xmlns="http://www.w3.org/2000/svg">
<path d="M74.4198 19.3841V39.558H77.9266V25.6687H78.1137L83.6891 39.4989H86.3094L91.8848 25.6983H92.0719V39.558H95.5787V19.3841H91.1066L85.1175 34.0023H84.8811L78.8919 19.3841H74.4198ZM101.617 45.2319C104.395 45.2319 106.001 43.8036 106.858 41.3902L112.935 24.4472L109.123 24.4275L105.626 35.8542H105.469L101.982 24.4275H98.199L103.686 39.8732L103.38 40.6908C102.72 42.4146 101.676 42.5328 100.12 42.0797L99.2924 44.8576C99.7751 45.0546 100.642 45.2319 101.617 45.2319ZM119.814 39.558H123.419L127.467 25.4028H127.625L131.664 39.558H135.269L140.963 19.3841H137.032L133.397 34.219H133.22L129.329 19.3841H125.753L121.872 34.2091H121.685L118.05 19.3841H114.12L119.814 39.558ZM146.149 39.8634C148.523 39.8634 149.941 38.7502 150.592 37.4795H150.71V39.558H154.138V29.4316C154.138 25.4323 150.877 24.2305 147.991 24.2305C144.809 24.2305 142.366 25.649 141.578 28.4072L144.908 28.88C145.262 27.8457 146.267 26.9591 148.011 26.9591C149.666 26.9591 150.572 27.8063 150.572 29.2937V29.3528C150.572 30.3773 149.498 30.4265 146.829 30.7122C143.893 31.0274 141.086 31.9041 141.086 35.3124C141.086 38.2873 143.263 39.8634 146.149 39.8634ZM147.075 37.2431C145.587 37.2431 144.524 36.5634 144.524 35.2533C144.524 33.8841 145.716 33.3127 147.311 33.0862C148.247 32.9581 150.119 32.7217 150.582 32.3474V34.1303C150.582 35.8148 149.222 37.2431 147.075 37.2431ZM165.279 24.4275H162.294V20.8025H158.728V24.4275H156.581V27.1857H158.728V35.5981C158.708 38.4449 160.777 39.8436 163.456 39.7648C164.471 39.7353 165.17 39.5383 165.555 39.4102L164.954 36.6225C164.757 36.6718 164.353 36.7604 163.91 36.7604C163.013 36.7604 162.294 36.4452 162.294 35.007V27.1857H165.279V24.4275ZM174.797 39.8535C178.323 39.8535 180.747 38.1297 181.377 35.4996L178.047 35.1252C177.565 36.4058 176.383 37.0756 174.846 37.0756C172.541 37.0756 171.014 35.5587 170.985 32.968H181.525V31.8746C181.525 26.5651 178.333 24.2305 174.61 24.2305C170.275 24.2305 167.448 27.4123 167.448 32.0814C167.448 36.8294 170.236 39.8535 174.797 39.8535ZM170.995 30.5644C171.103 28.6337 172.531 27.0084 174.659 27.0084C176.708 27.0084 178.087 28.5057 178.107 30.5644H170.995ZM184.541 39.558H188.107V30.6629C188.107 28.7421 189.555 27.3827 191.516 27.3827C192.117 27.3827 192.865 27.4911 193.171 27.5896V24.3093C192.845 24.2502 192.284 24.2108 191.89 24.2108C190.156 24.2108 188.708 25.1959 188.157 26.9493H187.999V24.4275H184.541V39.558ZM193.239 22.4476H199.475V39.558H203.1V22.4476H209.335V19.3841H193.239V22.4476ZM214.576 39.8634C216.95 39.8634 218.368 38.7502 219.018 37.4795H219.137V39.558H222.565V29.4316C222.565 25.4323 219.304 24.2305 216.418 24.2305C213.236 24.2305 210.793 25.649 210.005 28.4072L213.335 28.88C213.689 27.8457 214.694 26.9591 216.438 26.9591C218.092 26.9591 218.999 27.8063 218.999 29.2937V29.3528C218.999 30.3773 217.925 30.4265 215.255 30.7122C212.32 31.0274 209.513 31.9041 209.513 35.3124C209.513 38.2873 211.69 39.8634 214.576 39.8634ZM215.502 37.2431C214.014 37.2431 212.95 36.5634 212.95 35.2533C212.95 33.8841 214.142 33.3127 215.738 33.0862C216.674 32.9581 218.546 32.7217 219.009 32.3474V34.1303C219.009 35.8148 217.649 37.2431 215.502 37.2431ZM229.716 30.6925C229.716 28.5057 231.036 27.2448 232.917 27.2448C234.76 27.2448 235.863 28.4564 235.863 30.4758V39.558H239.429V29.9242C239.439 26.2992 237.37 24.2305 234.247 24.2305C231.982 24.2305 230.425 25.3141 229.736 26.9985H229.558V24.4275H226.15V39.558H229.716V30.6925ZM243.054 39.558H246.62V34.4751L247.92 33.0862L252.55 39.558H256.815L250.609 30.9585L256.47 24.4275H252.303L246.866 30.5053H246.62V19.3841H243.054V39.558ZM268.475 39.558L270.14 34.5835H277.725L279.4 39.558H283.301L276.188 19.3841H271.677L264.575 39.558H268.475ZM271.125 31.648L273.854 23.5213H274.011L276.74 31.648H271.125ZM285.8 45.2319H289.366V37.1742H289.514C290.075 38.2774 291.247 39.8239 293.848 39.8239C297.414 39.8239 300.083 36.9968 300.083 32.0125C300.083 26.969 297.335 24.2305 293.838 24.2305C291.169 24.2305 290.056 25.8362 289.514 26.9296H289.307V24.4275H285.8V45.2319ZM289.297 31.9928C289.297 29.0573 290.558 27.1561 292.853 27.1561C295.227 27.1561 296.449 29.1755 296.449 31.9928C296.449 34.8297 295.207 36.8983 292.853 36.8983C290.578 36.8983 289.297 34.9282 289.297 31.9928ZM303.137 45.2319H306.703V37.1742H306.851C307.412 38.2774 308.584 39.8239 311.185 39.8239C314.751 39.8239 317.42 36.9968 317.42 32.0125C317.42 26.969 314.672 24.2305 311.175 24.2305C308.506 24.2305 307.393 25.8362 306.851 26.9296H306.644V24.4275H303.137V45.2319ZM306.634 31.9928C306.634 29.0573 307.895 27.1561 310.19 27.1561C312.564 27.1561 313.786 29.1755 313.786 31.9928C313.786 34.8297 312.544 36.8983 310.19 36.8983C307.915 36.8983 306.634 34.9282 306.634 31.9928Z" fill="#1559B3"/>
<g clip-path="url(#clip0_11_758)">
<path d="M22.5924 32.3964C19.6679 35.7643 19.8118 40.9899 22.904 44.2139C24.6299 46.0237 26.9431 46.9226 29.2442 46.9226C31.4975 46.9226 33.7387 46.0597 35.4526 44.3458C36.2317 43.5667 36.8429 42.6678 37.2624 41.721L48.5886 19.7638C48.8882 19.1406 48.241 18.4934 47.6178 18.793L25.6606 30.1192C24.522 30.6225 23.4793 31.3896 22.5924 32.3964ZM26.5955 35.4886C27.3266 34.7575 28.2854 34.3859 29.2442 34.3859C30.2031 34.3859 31.1619 34.7575 31.905 35.4886C33.3672 36.9508 33.3672 39.3359 31.905 40.7981C31.1739 41.5292 30.215 41.9007 29.2442 41.9007C28.2854 41.9007 27.3266 41.5292 26.5955 40.7981C25.1213 39.3239 25.1213 36.9508 26.5955 35.4886ZM52.7595 40.9179C52.7595 36.771 51.6688 32.696 49.5953 29.1364C48.7923 27.7461 49.2598 25.9722 50.6501 25.1692C52.0404 24.3662 53.8142 24.8336 54.6172 26.2239C57.1941 30.6705 58.5604 35.7523 58.5604 40.9179C58.5604 42.524 57.266 43.8184 55.6599 43.8184C54.0659 43.8184 52.7595 42.524 52.7595 40.9179ZM0 40.9179C0 24.7737 13.1359 11.6378 29.2802 11.6378C33.0316 11.6378 36.6871 12.3329 40.1389 13.7232C41.6251 14.3225 42.3442 16.0004 41.7569 17.4866C41.1577 18.9728 39.4797 19.6919 37.9935 19.1046C35.2249 18.002 32.2885 17.4387 29.2802 17.4387C16.336 17.4387 5.80091 27.9738 5.80091 40.9179C5.80091 42.524 4.50649 43.8184 2.90045 43.8184C1.29442 43.8184 0 42.524 0 40.9179Z" fill="#1559B3"/>
</g>
<defs>
<clipPath id="clip0_11_758">
<rect width="58.5604" height="58.5604" fill="white"/>
</clipPath>
</defs>
</svg>
