<svg width="414" height="76" viewBox="0 0 414 76" fill="none" xmlns="http://www.w3.org/2000/svg">
<path d="M96.5824 24.8182V51H101.134V32.9744H101.376L108.612 50.9233H112.013L119.249 33.0128H119.491V51H124.043V24.8182H118.239L110.466 43.7898H110.159L102.386 24.8182H96.5824ZM131.879 58.3636C135.484 58.3636 137.568 56.5099 138.68 53.3778L146.568 31.3892L141.621 31.3636L137.082 46.1932H136.878L132.352 31.3636H127.443L134.564 51.4091L134.168 52.4702C133.311 54.7074 131.956 54.8608 129.936 54.2727L128.862 57.8778C129.489 58.1335 130.614 58.3636 131.879 58.3636ZM155.495 51H160.174L165.428 32.6293H165.632L170.874 51H175.553L182.942 24.8182H177.841L173.124 44.071H172.894L167.844 24.8182H163.203L158.167 44.0582H157.924L153.206 24.8182H148.105L155.495 51ZM189.673 51.3963C192.754 51.3963 194.595 49.9517 195.439 48.3026H195.592V51H200.041V37.858C200.041 32.6676 195.809 31.108 192.064 31.108C187.934 31.108 184.764 32.9489 183.741 36.5284L188.062 37.142C188.522 35.7997 189.826 34.6491 192.089 34.6491C194.237 34.6491 195.413 35.7486 195.413 37.679V37.7557C195.413 39.0852 194.02 39.1491 190.555 39.5199C186.745 39.929 183.102 41.0668 183.102 45.4901C183.102 49.3509 185.927 51.3963 189.673 51.3963ZM190.875 47.9957C188.944 47.9957 187.564 47.1136 187.564 45.4134C187.564 43.6364 189.11 42.8949 191.181 42.6009C192.396 42.4347 194.825 42.1278 195.426 41.642V43.956C195.426 46.142 193.662 47.9957 190.875 47.9957ZM214.5 31.3636H210.626V26.6591H205.998V31.3636H203.211V34.9432H205.998V45.8608C205.973 49.5554 208.657 51.3707 212.135 51.2685C213.451 51.2301 214.359 50.9744 214.858 50.8082L214.078 47.1903C213.822 47.2543 213.298 47.3693 212.723 47.3693C211.559 47.3693 210.626 46.9602 210.626 45.0938V34.9432H214.5V31.3636ZM226.852 51.3835C231.429 51.3835 234.574 49.1463 235.392 45.733L231.071 45.2472C230.445 46.9091 228.911 47.7784 226.916 47.7784C223.925 47.7784 221.943 45.8097 221.905 42.4474H235.584V41.0284C235.584 34.1378 231.442 31.108 226.609 31.108C220.984 31.108 217.315 35.2372 217.315 41.2969C217.315 47.4588 220.933 51.3835 226.852 51.3835ZM221.918 39.3281C222.058 36.8224 223.912 34.7131 226.673 34.7131C229.332 34.7131 231.122 36.6562 231.148 39.3281H221.918ZM239.499 51H244.127V39.456C244.127 36.9631 246.006 35.1989 248.55 35.1989C249.33 35.1989 250.301 35.3395 250.698 35.4673V31.2102C250.276 31.1335 249.547 31.0824 249.036 31.0824C246.786 31.0824 244.907 32.3608 244.191 34.6364H243.986V31.3636H239.499V51ZM250.787 28.794H258.88V51H263.584V28.794H271.676V24.8182H250.787V28.794ZM278.478 51.3963C281.559 51.3963 283.4 49.9517 284.243 48.3026H284.397V51H288.846V37.858C288.846 32.6676 284.614 31.108 280.868 31.108C276.739 31.108 273.569 32.9489 272.546 36.5284L276.867 37.142C277.327 35.7997 278.631 34.6491 280.894 34.6491C283.042 34.6491 284.218 35.7486 284.218 37.679V37.7557C284.218 39.0852 282.824 39.1491 279.36 39.5199C275.55 39.929 271.907 41.0668 271.907 45.4901C271.907 49.3509 274.732 51.3963 278.478 51.3963ZM279.679 47.9957C277.749 47.9957 276.368 47.1136 276.368 45.4134C276.368 43.6364 277.915 42.8949 279.986 42.6009C281.201 42.4347 283.63 42.1278 284.23 41.642V43.956C284.23 46.142 282.466 47.9957 279.679 47.9957ZM298.127 39.4943C298.127 36.6562 299.84 35.0199 302.282 35.0199C304.672 35.0199 306.104 36.5923 306.104 39.2131V51H310.732V38.4972C310.745 33.7926 308.06 31.108 304.007 31.108C301.067 31.108 299.047 32.5142 298.152 34.7003H297.922V31.3636H293.499V51H298.127V39.4943ZM315.436 51H320.064V44.4034L321.752 42.6009L327.76 51H333.296L325.242 39.8395L332.848 31.3636H327.441L320.384 39.2514H320.064V24.8182H315.436V51ZM348.429 51L350.589 44.544H360.433L362.607 51H367.669L358.439 24.8182H352.584L343.366 51H348.429ZM351.868 40.7344L355.409 30.1875H355.614L359.155 40.7344H351.868ZM370.913 58.3636H375.541V47.9062H375.733C376.461 49.3381 377.983 51.3452 381.358 51.3452C385.985 51.3452 389.45 47.6761 389.45 41.2074C389.45 34.6619 385.883 31.108 381.345 31.108C377.88 31.108 376.436 33.1918 375.733 34.6108H375.464V31.3636H370.913V58.3636ZM375.451 41.1818C375.451 37.3722 377.088 34.9048 380.066 34.9048C383.147 34.9048 384.733 37.5256 384.733 41.1818C384.733 44.8636 383.122 47.5483 380.066 47.5483C377.113 47.5483 375.451 44.9915 375.451 41.1818ZM393.413 58.3636H398.041V47.9062H398.233C398.961 49.3381 400.483 51.3452 403.858 51.3452C408.485 51.3452 411.95 47.6761 411.95 41.2074C411.95 34.6619 408.383 31.108 403.845 31.108C400.38 31.108 398.936 33.1918 398.233 34.6108H397.964V31.3636H393.413V58.3636ZM397.951 41.1818C397.951 37.3722 399.588 34.9048 402.566 34.9048C405.647 34.9048 407.233 37.5256 407.233 41.1818C407.233 44.8636 405.622 47.5483 402.566 47.5483C399.613 47.5483 397.951 44.9915 397.951 41.1818Z" fill="white"/>
<path d="M29.3205 42.0442C25.5252 46.4151 25.7118 53.1969 29.7249 57.3811C31.9648 59.7299 34.9668 60.8965 37.9533 60.8965C40.8776 60.8965 43.7863 59.7765 46.0106 57.5522C47.0217 56.5412 47.815 55.3746 48.3594 54.1457L63.0585 25.6496C63.4474 24.8408 62.6074 24.0008 61.7986 24.3897L33.3025 39.0888C31.8248 39.7421 30.4716 40.7376 29.3205 42.0442ZM34.5158 46.0573C35.4646 45.1085 36.709 44.6263 37.9533 44.6263C39.1977 44.6263 40.4421 45.1085 41.4065 46.0573C43.3041 47.955 43.3041 51.0504 41.4065 52.948C40.4576 53.8969 39.2133 54.3791 37.9533 54.3791C36.709 54.3791 35.4646 53.8969 34.5158 52.948C32.6025 51.0348 32.6025 47.955 34.5158 46.0573ZM68.4716 53.1036C68.4716 47.7217 67.0561 42.4331 64.3651 37.8134C63.323 36.009 63.9296 33.7069 65.7339 32.6648C67.5383 31.6226 69.8404 32.2292 70.8825 34.0336C74.2268 39.8044 76 46.3995 76 53.1036C76 55.1879 74.3201 56.8678 72.2358 56.8678C70.167 56.8678 68.4716 55.1879 68.4716 53.1036ZM0 53.1036C0 32.1515 17.0479 15.1036 38 15.1036C42.8686 15.1036 47.6128 16.0057 52.0925 17.8101C54.0213 18.5878 54.9546 20.7655 54.1924 22.6942C53.4147 24.623 51.237 25.5563 49.3082 24.7941C45.7151 23.3631 41.9042 22.632 38 22.632C21.201 22.632 7.52845 36.3046 7.52845 53.1036C7.52845 55.1879 5.84855 56.8678 3.76422 56.8678C1.6799 56.8678 0 55.1879 0 53.1036Z" fill="white"/>
</svg>
