<svg width="411" height="76" viewBox="0 0 411 76" fill="none" xmlns="http://www.w3.org/2000/svg">
<path d="M119.977 37.9091C119.977 29.446 114.812 24.4602 107.947 24.4602C101.07 24.4602 95.9176 29.446 95.9176 37.9091C95.9176 46.3594 101.07 51.358 107.947 51.358C109.609 51.358 111.169 51.0639 112.588 50.5014L114.749 53.25H119.351L115.72 48.5966C118.354 46.2955 119.977 42.652 119.977 37.9091ZM106.337 42.2045L109.878 46.858C109.264 47.0241 108.625 47.1009 107.947 47.1009C103.69 47.1009 100.686 43.8665 100.686 37.9091C100.686 31.9517 103.69 28.7173 107.947 28.7173C112.217 28.7173 115.209 31.9517 115.209 37.9091C115.209 41.1307 114.339 43.5469 112.857 45.0938L110.632 42.2045H106.337ZM136.808 42.7415C136.808 45.733 134.673 47.2159 132.627 47.2159C130.403 47.2159 128.92 45.6435 128.92 43.1506V31.3636H124.292V43.8665C124.292 48.5838 126.977 51.2557 130.837 51.2557C133.778 51.2557 135.849 49.7088 136.744 47.5099H136.948V51H141.435V31.3636H136.808V42.7415ZM154.887 51.3835C159.464 51.3835 162.609 49.1463 163.427 45.733L159.106 45.2472C158.48 46.9091 156.946 47.7784 154.951 47.7784C151.96 47.7784 149.978 45.8097 149.94 42.4474H163.619V41.0284C163.619 34.1378 159.477 31.108 154.645 31.108C149.02 31.108 145.35 35.2372 145.35 41.2969C145.35 47.4588 148.968 51.3835 154.887 51.3835ZM149.953 39.3281C150.093 36.8224 151.947 34.7131 154.708 34.7131C157.368 34.7131 159.157 36.6562 159.183 39.3281H149.953ZM167.534 51H172.162V39.456C172.162 36.9631 174.041 35.1989 176.585 35.1989C177.365 35.1989 178.337 35.3395 178.733 35.4673V31.2102C178.311 31.1335 177.582 31.0824 177.071 31.0824C174.821 31.0824 172.942 32.3608 172.226 34.6364H172.021V31.3636H167.534V51ZM181.808 51H186.435V31.3636H181.808V51ZM184.134 28.5767C185.604 28.5767 186.806 27.4517 186.806 26.071C186.806 24.6776 185.604 23.5526 184.134 23.5526C182.651 23.5526 181.45 24.6776 181.45 26.071C181.45 27.4517 182.651 28.5767 184.134 28.5767ZM198.481 51.3452C201.856 51.3452 203.377 49.3381 204.106 47.9062H204.387V51H208.939V24.8182H204.298V34.6108H204.106C203.403 33.1918 201.958 31.108 198.494 31.108C193.956 31.108 190.389 34.6619 190.389 41.2074C190.389 47.6761 193.853 51.3452 198.481 51.3452ZM199.772 47.5483C196.717 47.5483 195.106 44.8636 195.106 41.1818C195.106 37.5256 196.691 34.9048 199.772 34.9048C202.751 34.9048 204.387 37.3722 204.387 41.1818C204.387 44.9915 202.725 47.5483 199.772 47.5483ZM222.435 51.3835C228.188 51.3835 231.844 47.331 231.844 41.2585C231.844 35.1733 228.188 31.108 222.435 31.108C216.683 31.108 213.026 35.1733 213.026 41.2585C213.026 47.331 216.683 51.3835 222.435 51.3835ZM222.461 47.6761C219.278 47.6761 217.718 44.8381 217.718 41.2457C217.718 37.6534 219.278 34.777 222.461 34.777C225.593 34.777 227.153 37.6534 227.153 41.2457C227.153 44.8381 225.593 47.6761 222.461 47.6761ZM235.772 51H240.4V39.0597C240.4 36.6435 242.011 35.0071 244.005 35.0071C245.961 35.0071 247.304 36.3239 247.304 38.3438V51H251.842V38.7528C251.842 36.5412 253.159 35.0071 255.396 35.0071C257.262 35.0071 258.745 36.1065 258.745 38.5355V51H263.386V37.8196C263.386 33.4347 260.855 31.108 257.25 31.108C254.399 31.108 252.225 32.5142 251.356 34.7003H251.152C250.397 32.4759 248.493 31.108 245.846 31.108C243.213 31.108 241.244 32.4631 240.426 34.7003H240.196V31.3636H235.772V51ZM276.774 51.3835C281.351 51.3835 284.496 49.1463 285.314 45.733L280.993 45.2472C280.366 46.9091 278.832 47.7784 276.838 47.7784C273.847 47.7784 271.865 45.8097 271.827 42.4474H285.506V41.0284C285.506 34.1378 281.364 31.108 276.531 31.108C270.906 31.108 267.237 35.2372 267.237 41.2969C267.237 47.4588 270.855 51.3835 276.774 51.3835ZM271.839 39.3281C271.98 36.8224 273.834 34.7131 276.595 34.7131C279.254 34.7131 281.044 36.6562 281.07 39.3281H271.839ZM299.226 31.3636H295.353V26.6591H290.725V31.3636H287.938V34.9432H290.725V45.8608C290.699 49.5554 293.384 51.3707 296.861 51.2685C298.178 51.2301 299.086 50.9744 299.584 50.8082L298.804 47.1903C298.549 47.2543 298.025 47.3693 297.449 47.3693C296.286 47.3693 295.353 46.9602 295.353 45.0938V34.9432H299.226V31.3636ZM303.097 51H307.724V39.456C307.724 36.9631 309.604 35.1989 312.148 35.1989C312.928 35.1989 313.899 35.3395 314.295 35.4673V31.2102C313.874 31.1335 313.145 31.0824 312.634 31.0824C310.384 31.0824 308.504 32.3608 307.788 34.6364H307.584V31.3636H303.097V51ZM325.127 51.3835C330.88 51.3835 334.536 47.331 334.536 41.2585C334.536 35.1733 330.88 31.108 325.127 31.108C319.374 31.108 315.718 35.1733 315.718 41.2585C315.718 47.331 319.374 51.3835 325.127 51.3835ZM325.152 47.6761C321.969 47.6761 320.409 44.8381 320.409 41.2457C320.409 37.6534 321.969 34.777 325.152 34.777C328.284 34.777 329.844 37.6534 329.844 41.2457C329.844 44.8381 328.284 47.6761 325.152 47.6761ZM341.315 51.2812C342.823 51.2812 344.114 50.0284 344.127 48.4688C344.114 46.9347 342.823 45.6818 341.315 45.6818C339.755 45.6818 338.489 46.9347 338.502 48.4688C338.489 50.0284 339.755 51.2812 341.315 51.2812ZM356.192 51.3452C359.567 51.3452 361.088 49.3381 361.817 47.9062H362.098V51H366.65V24.8182H362.009V34.6108H361.817C361.114 33.1918 359.669 31.108 356.205 31.108C351.667 31.108 348.1 34.6619 348.1 41.2074C348.1 47.6761 351.564 51.3452 356.192 51.3452ZM357.483 47.5483C354.428 47.5483 352.817 44.8636 352.817 41.1818C352.817 37.5256 354.402 34.9048 357.483 34.9048C360.462 34.9048 362.098 37.3722 362.098 41.1818C362.098 44.9915 360.436 47.5483 357.483 47.5483ZM380.274 51.3835C384.851 51.3835 387.996 49.1463 388.814 45.733L384.493 45.2472C383.866 46.9091 382.332 47.7784 380.338 47.7784C377.347 47.7784 375.365 45.8097 375.327 42.4474H389.006V41.0284C389.006 34.1378 384.864 31.108 380.031 31.108C374.406 31.108 370.737 35.2372 370.737 41.2969C370.737 47.4588 374.355 51.3835 380.274 51.3835ZM375.339 39.3281C375.48 36.8224 377.334 34.7131 380.095 34.7131C382.754 34.7131 384.544 36.6562 384.57 39.3281H375.339ZM409.898 31.3636H404.976L400.451 45.9503H400.246L395.733 31.3636H390.799L397.792 51H402.905L409.898 31.3636Z" fill="white"/>
<path d="M29.3205 42.0443C25.5252 46.4151 25.7118 53.197 29.7249 57.3812C31.9648 59.7299 34.9668 60.8965 37.9533 60.8965C40.8776 60.8965 43.7863 59.7766 46.0106 57.5523C47.0217 56.5412 47.815 55.3746 48.3594 54.1458L63.0585 25.6497C63.4474 24.8408 62.6074 24.0009 61.7986 24.3898L33.3025 39.0889C31.8248 39.7422 30.4715 40.7377 29.3205 42.0443ZM34.5158 46.0574C35.4646 45.1085 36.709 44.6264 37.9533 44.6264C39.1977 44.6264 40.4421 45.1085 41.4065 46.0574C43.3041 47.955 43.3041 51.0504 41.4065 52.9481C40.4576 53.8969 39.2133 54.3791 37.9533 54.3791C36.709 54.3791 35.4646 53.8969 34.5158 52.9481C32.6025 51.0349 32.6025 47.955 34.5158 46.0574ZM68.4715 53.1036C68.4715 47.7217 67.0561 42.4331 64.3651 37.8134C63.323 36.0091 63.9296 33.707 65.7339 32.6648C67.5383 31.6227 69.8404 32.2293 70.8825 34.0336C74.2268 39.8044 76 46.3996 76 53.1036C76 55.188 74.3201 56.8679 72.2358 56.8679C70.167 56.8679 68.4715 55.188 68.4715 53.1036ZM0 53.1036C0 32.1515 17.0479 15.1036 38 15.1036C42.8686 15.1036 47.6128 16.0058 52.0925 17.8101C54.0213 18.5879 54.9546 20.7655 54.1924 22.6943C53.4147 24.6231 51.237 25.5564 49.3082 24.7942C45.7151 23.3632 41.9042 22.6321 38 22.6321C21.201 22.6321 7.52845 36.3046 7.52845 53.1036C7.52845 55.188 5.84855 56.8679 3.76422 56.8679C1.6799 56.8679 0 55.188 0 53.1036Z" fill="white"/>
</svg>
