<svg width="16" height="16" viewBox="0 0 16 16" fill="none" xmlns="http://www.w3.org/2000/svg">
<g clip-path="url(#clip0)">
<path d="M9.99599 15.4691H4.61279C4.56453 15.4691 4.5178 15.4521 4.48078 15.4212C4.44375 15.3902 4.41879 15.3472 4.41025 15.2997L3.44118 9.91631C3.43585 9.88668 3.43709 9.85623 3.4448 9.82712C3.45252 9.79802 3.46653 9.77096 3.48584 9.74786C3.50516 9.72476 3.52931 9.70617 3.55658 9.69342C3.58386 9.68067 3.61361 9.67405 3.64372 9.67405H10.9651C10.9952 9.67405 11.0249 9.68067 11.0522 9.69342C11.0795 9.70617 11.1036 9.72476 11.1229 9.74786C11.1423 9.77096 11.1563 9.79802 11.164 9.82712C11.1717 9.85623 11.1729 9.88668 11.1676 9.91631L10.1987 15.2997C10.1902 15.3473 10.1652 15.3903 10.1281 15.4212C10.0911 15.4522 10.0443 15.4692 9.99599 15.4691ZM4.78487 15.0575H9.82391L10.7197 10.0857H3.8899L4.78487 15.0575Z" fill="white"/>
<path d="M11.6021 10.0857H3.00663C2.92111 10.0856 2.83914 10.0516 2.77867 9.99112C2.71821 9.93066 2.68419 9.84868 2.68408 9.76317V8.61935C2.68425 8.53387 2.71829 8.45195 2.77875 8.39153C2.8392 8.33111 2.92115 8.29712 3.00663 8.29701H11.6021C11.6876 8.29712 11.7695 8.33111 11.83 8.39153C11.8904 8.45195 11.9245 8.53387 11.9246 8.61935V9.76338C11.9245 9.84885 11.8904 9.93078 11.83 9.9912C11.7695 10.0516 11.6876 10.0856 11.6021 10.0857ZM3.09575 9.67405H11.513V8.70847H3.09575V9.67405Z" fill="white"/>
<path d="M7.40803 8.70848H7.39238C7.33796 8.70437 7.2874 8.67882 7.25181 8.63744C7.21622 8.59607 7.19852 8.54225 7.2026 8.48782C7.23519 8.05252 7.30865 7.62125 7.42202 7.19971C7.82764 5.66858 8.73071 4.31571 9.9892 3.35389C10.0107 3.33745 10.0351 3.32541 10.0613 3.31843C10.0874 3.31146 10.1146 3.30971 10.1414 3.31326C10.1682 3.31682 10.194 3.32562 10.2174 3.33915C10.2408 3.35269 10.2613 3.37071 10.2778 3.39217C10.2942 3.41363 10.3063 3.43812 10.3132 3.46424C10.3202 3.49036 10.322 3.51759 10.3184 3.54439C10.3148 3.57119 10.306 3.59702 10.2925 3.62042C10.279 3.64382 10.261 3.66432 10.2395 3.68075C9.05337 4.58713 8.20221 5.86209 7.8199 7.30509C7.71344 7.70208 7.64452 8.10819 7.61407 8.51808C7.61016 8.56999 7.58674 8.61849 7.54851 8.65382C7.51028 8.68915 7.46008 8.70868 7.40803 8.70848Z" fill="white"/>
<path d="M9.94637 6.28621C9.33314 6.26233 8.73529 6.08748 8.20583 5.77718C8.16566 5.75559 8.13381 5.72127 8.11526 5.67961C8.08809 5.61786 7.45659 4.16425 8.25687 2.87614C8.94951 1.76319 10.4727 1.15227 12.7844 1.06068C12.8127 1.05933 12.841 1.06395 12.8673 1.07423C12.8937 1.08452 12.9176 1.10024 12.9376 1.12037C12.9576 1.14029 12.9734 1.16413 12.9838 1.19041C12.9943 1.21669 12.9992 1.24483 12.9983 1.2731C12.9935 1.42274 12.8591 4.95116 11.0428 5.99824C10.7095 6.1902 10.331 6.28962 9.94637 6.28621ZM8.46662 5.44949C9.40893 5.93979 10.2059 6.00524 10.8362 5.64194C12.2128 4.84804 12.5133 2.26152 12.5722 1.48305C10.5344 1.59708 9.20186 2.1374 8.60741 3.09041C8.00781 4.05269 8.36391 5.17429 8.46641 5.44928L8.46662 5.44949Z" fill="white"/>
<path d="M7.62083 7.45885C7.58012 7.45886 7.54033 7.4468 7.50647 7.42419C7.47262 7.40159 7.44623 7.36945 7.43064 7.33185C7.19154 6.75464 6.8393 6.23115 6.39469 5.79223C5.95008 5.35331 5.42209 5.00784 4.84185 4.7762C4.81622 4.76654 4.79278 4.75186 4.77289 4.73302C4.75301 4.71418 4.73708 4.69157 4.72605 4.6665C4.71502 4.64143 4.7091 4.61441 4.70865 4.58702C4.70819 4.55963 4.71321 4.53243 4.7234 4.50701C4.73359 4.48158 4.74875 4.45845 4.768 4.43896C4.78725 4.41947 4.81019 4.40402 4.83548 4.39351C4.86078 4.383 4.88791 4.37765 4.91531 4.37776C4.9427 4.37787 4.96979 4.38345 4.99499 4.39417C5.62608 4.6462 6.20034 5.02199 6.68393 5.4994C7.16753 5.97681 7.55068 6.54618 7.81082 7.17397C7.82382 7.20524 7.82891 7.23924 7.82563 7.27295C7.82235 7.30666 7.8108 7.33904 7.79201 7.36722C7.77322 7.3954 7.74776 7.4185 7.7179 7.43448C7.68804 7.45047 7.6547 7.45884 7.62083 7.45885Z" fill="white"/>
<path d="M5.13314 6.54927C5.00211 6.54913 4.87162 6.53254 4.74473 6.49987C3.2833 6.12648 2.51327 3.73015 2.48054 3.62826C2.47204 3.60121 2.46922 3.57269 2.47225 3.5445C2.47529 3.5163 2.48412 3.48904 2.49819 3.46442C2.51226 3.4398 2.53126 3.41835 2.55401 3.40142C2.57676 3.38449 2.60277 3.37244 2.63039 3.36603C4.2359 2.98503 5.40175 3.11512 6.09727 3.75259C6.90743 4.49524 6.75038 5.63104 6.74338 5.6792C6.73652 5.72442 6.71479 5.76606 6.68163 5.79756C6.16211 6.29753 5.64278 6.54927 5.13314 6.54927ZM2.94902 3.71595C3.16412 4.28879 3.83411 5.84223 4.84723 6.10055C5.31592 6.21993 5.81877 6.03571 6.34221 5.552C6.35847 5.32208 6.36609 4.55493 5.8163 4.05331C5.25746 3.54408 4.29333 3.43066 2.94902 3.71595Z" fill="white"/>
</g>
<defs>
<clipPath id="clip0">
<rect width="15.2318" height="15.2318" fill="white" transform="translate(0.119202 0.649006)"/>
</clipPath>
</defs>
</svg>
