<svg width="16" height="16" viewBox="0 0 16 16" fill="none" xmlns="http://www.w3.org/2000/svg">
<g clip-path="url(#clip0)">
<path d="M3.53696 14.192C3.42907 14.192 3.32118 14.1559 3.23232 14.0816C1.4978 12.6352 0.503296 10.5085 0.503296 8.24529C0.503296 4.04576 3.91966 0.629395 8.11919 0.629395C12.3187 0.629395 15.7351 4.04576 15.7351 8.24529C15.7351 10.518 14.738 12.6454 12.9984 14.0829C12.7966 14.2498 12.4958 14.2219 12.3282 14.0188C12.1607 13.8163 12.1892 13.5161 12.3923 13.3486C13.9123 12.0926 14.7837 10.2324 14.7837 8.24465C14.7837 4.56998 11.7945 1.58075 8.11982 1.58075C4.44516 1.58075 1.45528 4.57125 1.45528 8.24529C1.45528 10.2248 2.3254 12.0856 3.84223 13.3498C4.04405 13.5187 4.07071 13.8182 3.90316 14.0207C3.80859 14.1336 3.67341 14.192 3.53696 14.192Z" fill="white"/>
<path d="M4.78787 8.2649C4.63809 8.2649 4.48958 8.19446 4.39756 8.06181C4.24714 7.84666 4.29918 7.54964 4.51497 7.39923L5.54375 6.67826L4.51433 5.95729C4.29855 5.80687 4.24651 5.50985 4.39756 5.2947C4.54733 5.07892 4.84435 5.02624 5.06014 5.17793L6.64678 6.28858C6.77435 6.37743 6.84987 6.52277 6.84987 6.67826C6.84987 6.83375 6.77435 6.97909 6.64678 7.06794L5.06014 8.17859C4.977 8.23698 4.8818 8.2649 4.78787 8.2649Z" fill="white"/>
<path d="M11.4505 8.2649C11.3566 8.2649 11.2614 8.23697 11.1782 8.17859L9.59158 7.06793C9.46401 6.97908 9.38849 6.83375 9.38849 6.67825C9.38849 6.52276 9.46401 6.37743 9.59158 6.28857L11.1782 5.17792C11.394 5.02751 11.691 5.07955 11.8408 5.2947C11.9912 5.50985 11.9392 5.80687 11.7234 5.95728L10.6946 6.67825L11.724 7.39923C11.9398 7.54964 11.9919 7.84666 11.8414 8.06181C11.7488 8.19445 11.6003 8.2649 11.4505 8.2649Z" fill="white"/>
<path d="M13.5328 15.8808H2.70555C2.4428 15.8808 2.22955 15.6675 2.22955 15.4048C2.22955 14.2028 2.80646 13.6017 3.29134 13.3092C4.11131 12.7983 5.22387 12.8389 5.89787 12.929V10.5236C5.89787 10.2609 6.11112 10.0477 6.37387 10.0477C6.63662 10.0477 6.84986 10.2615 6.84986 10.5243V13.5008C6.84986 13.6481 6.78195 13.7871 6.66518 13.8765C6.5484 13.9667 6.39735 13.9984 6.25519 13.9616C5.81918 13.8499 4.52765 13.6595 3.78891 14.1203C3.49443 14.2986 3.30974 14.5645 3.22914 14.9288H13.0092C12.9286 14.5645 12.7433 14.2999 12.4507 14.1253C11.7069 13.6792 10.4204 13.8829 9.98761 13.999C9.84227 14.0365 9.69122 14.0066 9.57508 13.9172C9.45704 13.8264 9.38849 13.6868 9.38849 13.5389V10.5243C9.38849 10.2615 9.60174 10.0483 9.86449 10.0483C10.1272 10.0483 10.3405 10.2615 10.3405 10.5243V12.9626C11.0145 12.8662 12.1188 12.816 12.94 13.3085C13.4275 13.5992 14.0094 14.1996 14.0094 15.4048C14.0088 15.6675 13.7956 15.8808 13.5328 15.8808Z" fill="white"/>
<path d="M11.2925 11.0003H4.9459C4.68315 11.0003 4.46991 10.787 4.46991 10.5243C4.46991 10.2615 4.68315 10.0483 4.9459 10.0483H11.2925C11.5552 10.0483 11.7685 10.2615 11.7685 10.5243C11.7685 10.787 11.5552 11.0003 11.2925 11.0003Z" fill="white"/>
</g>
<defs>
<clipPath id="clip0">
<rect width="15.2318" height="15.2318" fill="white" transform="translate(0.503296 0.649006)"/>
</clipPath>
</defs>
</svg>
