<svg width="16" height="16" viewBox="0 0 16 16" fill="none" xmlns="http://www.w3.org/2000/svg">
<g clip-path="url(#clip0)">
<path d="M8.15233 15.8808C3.9528 15.8808 0.536438 12.4644 0.536438 8.2649C0.536438 4.06537 3.9528 0.649006 8.15233 0.649006C12.3519 0.649006 15.7682 4.06537 15.7682 8.2649C15.7682 12.4644 12.3519 15.8808 8.15233 15.8808ZM8.15233 1.60099C4.47766 1.60099 1.48842 4.59023 1.48842 8.2649C1.48842 11.9396 4.47766 14.9288 8.15233 14.9288C11.827 14.9288 14.8162 11.9396 14.8162 8.2649C14.8162 4.59023 11.827 1.60099 8.15233 1.60099Z" fill="white"/>
<path d="M4.97903 7.6715C4.279 7.6715 3.70972 7.10221 3.70972 6.40218C3.70972 5.70215 4.279 5.13287 4.97903 5.13287C5.67906 5.13287 6.24835 5.70215 6.24835 6.40218C6.24835 7.10221 5.67906 7.6715 4.97903 7.6715ZM4.97903 6.08485C4.80387 6.08485 4.6617 6.22702 4.6617 6.40218C4.6617 6.57735 4.80387 6.71951 4.97903 6.71951C5.1542 6.71951 5.29636 6.57735 5.29636 6.40218C5.29636 6.22702 5.1542 6.08485 4.97903 6.08485Z" fill="white"/>
<path d="M11.3256 7.6715C10.6256 7.6715 10.0563 7.10221 10.0563 6.40218C10.0563 5.70215 10.6256 5.13287 11.3256 5.13287C12.0256 5.13287 12.5949 5.70215 12.5949 6.40218C12.5949 7.10221 12.0256 7.6715 11.3256 7.6715ZM11.3256 6.08485C11.1504 6.08485 11.0083 6.22702 11.0083 6.40218C11.0083 6.57735 11.1504 6.71951 11.3256 6.71951C11.5008 6.71951 11.6429 6.57735 11.6429 6.40218C11.6429 6.22702 11.5008 6.08485 11.3256 6.08485Z" fill="white"/>
<path d="M11.3256 13.0477C11.2038 13.0477 11.0819 13.0014 10.9892 12.9081C10.2315 12.1503 9.22426 11.7327 8.15232 11.7327C7.08038 11.7327 6.07318 12.1503 5.3154 12.9081C5.12945 13.094 4.82798 13.094 4.64203 12.9081C4.45607 12.7221 4.45607 12.4206 4.64203 12.2347C5.57942 11.2967 6.82589 10.7807 8.15169 10.7807C9.47749 10.7807 10.724 11.2967 11.6613 12.2347C11.8473 12.4206 11.8473 12.7221 11.6613 12.9081C11.5693 13.0007 11.4475 13.0477 11.3256 13.0477Z" fill="white"/>
</g>
<defs>
<clipPath id="clip0">
<rect width="15.2318" height="15.2318" fill="white" transform="translate(0.536438 0.649006)"/>
</clipPath>
</defs>
</svg>
