<svg width="16" height="16" viewBox="0 0 16 16" fill="none" xmlns="http://www.w3.org/2000/svg">
<g clip-path="url(#clip0)">
<path d="M7.63573 13.9768C5.07362 13.9768 2.79901 12.4118 2.10406 10.1701C2.02599 9.91882 2.16689 9.65226 2.41758 9.57484C2.67017 9.49677 2.93546 9.63767 3.01289 9.88836C3.58598 11.7352 5.48678 13.0248 7.63573 13.0248C9.78469 13.0248 11.6855 11.7352 12.2586 9.88836C12.3366 9.63767 12.6032 9.49677 12.8539 9.57484C13.1052 9.6529 13.2455 9.91946 13.1674 10.1701C12.4725 12.4118 10.1978 13.9768 7.63573 13.9768Z" fill="white"/>
<path d="M4.46243 7.63024C3.7624 7.63024 3.19312 7.06095 3.19312 6.36093C3.19312 5.6609 3.7624 5.09161 4.46243 5.09161C5.16246 5.09161 5.73175 5.6609 5.73175 6.36093C5.73175 7.06095 5.16246 7.63024 4.46243 7.63024ZM4.46243 6.0436C4.28727 6.0436 4.1451 6.18576 4.1451 6.36093C4.1451 6.53609 4.28727 6.67825 4.46243 6.67825C4.6376 6.67825 4.77976 6.53609 4.77976 6.36093C4.77976 6.18576 4.6376 6.0436 4.46243 6.0436Z" fill="white"/>
<path d="M10.809 7.63024C10.109 7.63024 9.53973 7.06095 9.53973 6.36093C9.53973 5.6609 10.109 5.09161 10.809 5.09161C11.5091 5.09161 12.0784 5.6609 12.0784 6.36093C12.0784 7.06095 11.5091 7.63024 10.809 7.63024ZM10.809 6.0436C10.6339 6.0436 10.4917 6.18576 10.4917 6.36093C10.4917 6.53609 10.6339 6.67825 10.809 6.67825C10.9842 6.67825 11.1264 6.53609 11.1264 6.36093C11.1264 6.18576 10.9842 6.0436 10.809 6.0436Z" fill="white"/>
<path d="M7.63573 15.8808C3.4362 15.8808 0.0198364 12.4644 0.0198364 8.2649C0.0198364 4.06537 3.4362 0.649006 7.63573 0.649006C11.8353 0.649006 15.2516 4.06537 15.2516 8.2649C15.2516 12.4644 11.8353 15.8808 7.63573 15.8808ZM7.63573 1.60099C3.96106 1.60099 0.971823 4.59023 0.971823 8.2649C0.971823 11.9396 3.96106 14.9288 7.63573 14.9288C11.3104 14.9288 14.2996 11.9396 14.2996 8.2649C14.2996 4.59023 11.3104 1.60099 7.63573 1.60099Z" fill="white"/>
</g>
<defs>
<clipPath id="clip0">
<rect width="15.2318" height="15.2318" fill="white" transform="translate(0.0198364 0.649006)"/>
</clipPath>
</defs>
</svg>
