<svg width="1440" height="284" viewBox="0 0 1440 284" fill="none" xmlns="http://www.w3.org/2000/svg">
<path d="M0 192L26.7 176C53.3 160 107 128 160 128C213.3 128 267 160 320 160C373.3 160 427 128 480 128C533.3 128 587 160 640 160C693.3 160 747 128 800 149.3C853.3 171 907 245 960 272C1013.3 299 1067 277 1120 234.7C1173.3 192 1227 128 1280 112C1333.3 96 1387 128 1413 144L1440 160V0H1413.3C1386.7 0 1333 0 1280 0C1226.7 0 1173 0 1120 0C1066.7 0 1013 0 960 0C906.7 0 853 0 800 0C746.7 0 693 0 640 0C586.7 0 533 0 480 0C426.7 0 373 0 320 0C266.7 0 213 0 160 0C106.7 0 53 0 27 0H0V192Z" fill="#1559B3"/>
</svg>
