<svg width="35" height="34" viewBox="0 0 35 34" fill="none" xmlns="http://www.w3.org/2000/svg">
<g clip-path="url(#clip0_11_768)">
<path d="M33.4121 9.21325C33.0414 7.81725 31.949 6.71779 30.562 6.34468C28.048 5.66669 17.9672 5.66669 17.9672 5.66669C17.9672 5.66669 7.88644 5.66669 5.37239 6.34468C3.98542 6.71785 2.89305 7.81725 2.5223 9.21325C1.84867 11.7436 1.84867 17.0229 1.84867 17.0229C1.84867 17.0229 1.84867 22.3022 2.5223 24.8326C2.89305 26.2286 3.98542 27.2822 5.37239 27.6554C7.88644 28.3334 17.9672 28.3334 17.9672 28.3334C17.9672 28.3334 28.048 28.3334 30.562 27.6554C31.949 27.2822 33.0414 26.2286 33.4121 24.8326C34.0857 22.3022 34.0857 17.0229 34.0857 17.0229C34.0857 17.0229 34.0857 11.7436 33.4121 9.21325V9.21325ZM14.6702 21.8162V12.2297L23.0958 17.023L14.6702 21.8162V21.8162Z" fill="#1559B3"/>
</g>
<defs>
<clipPath id="clip0_11_768">
<rect width="34" height="34" fill="white" transform="translate(0.967209)"/>
</clipPath>
</defs>
</svg>
